{"title":"The Last of Robin Hood(2013)MPEG-4[DaScubaDude]","uid":15340995,"size":959190427,"categoryP":"video","categoryS":"movies","magnet":"?xt=urn:btih:1fd1ae3c5bb9b6b88eb0876ee8b60c3d5ba80926&amp;dn=The+Last+of+Robin+Hood%282013%29MPEG-4%5BDaScubaDude%5D&amp;tr=udp%3A%2F%2Ftracker.leechers-paradise.org%3A6969&amp;tr=udp%3A%2F%2Fzer0day.ch%3A1337&amp;tr=udp%3A%2F%2Fopen.demonii.com%3A1337&amp;tr=udp%3A%2F%2Ftracker.coppersurfer.tk%3A6969&amp;tr=udp%3A%2F%2Fexodus.desync.com%3A6969","seeders":0,"leechers":1,"uploader":"dascuba","files":1,"time":1468837243,"description":"The Last of Robin Hood (2013)\r\nR | 1h 34min | Biography, Drama, Romance | 5 December 2014 (Spain)\r\nThe last days in the life of legendary Hollywood actor Errol Flynn.\r\nDirectors: Richard Glatzer, Wash Westmoreland\r\nWriters: Richard Glatzer, Wash Westmoreland\r\nStars: John Hudson Messerall, Dakota Fanning, Susan Sarandon \r\n\r\nGeneral\r\nComplete name                            : The Last of Robin HoodLAST_OF_ROBIN_HOOD_Title14.mp4\r\nFormat                                   : MPEG-4\r\nFormat profile                           : Base Media\r\nCodec ID                                 : isom (isom/iso2/avc1/mp41)\r\nFile size                                : 915 MiB\r\nDuration                                 : 1h 30mn\r\nOverall bit rate                         : 1 414 Kbps\r\nMovie name                               : LAST_OF_ROBIN_HOOD\r\nGenre                                    : Drama\r\nWriting application                      : Lavf54.6.100\r\n\r\nVideo\r\nID                                       : 1\r\nFormat                                   : AVC\r\nFormat/Info                              : Advanced Video Codec\r\nFormat profile                           :   \r\nFormat settings, CABAC                   : No\r\nFormat settings, ReFrames                : 6 frames\r\nFormat settings, GOP                     : N=1\r\nCodec ID                                 : avc1\r\nCodec ID/Info                            : Advanced Video Coding\r\nDuration                                 : 1h 30mn\r\nBit rate                                 : 1 188 Kbps\r\nWidth                                    : 720 pixels\r\nHeight                                   : 404 pixels\r\nDisplay aspect ratio                     : 16:9\r\nFrame rate mode                          : Constant\r\nFrame rate                               : 29.970 (30000/1001) fps\r\nColor space                              : YUV\r\nChroma subsampling                       : 4:2:0\r\nBit depth                                : 8 bits\r\nScan type                                : Progressive\r\nBits/(Pixel*Frame)                       : 0.136\r\nStream size                              : 768 MiB (84%)\r\n\r\nAudio\r\nID                                       : 2\r\nFormat                                   : AAC\r\nFormat/Info                              : Advanced Audio Codec\r\nFormat profile                           : LC\r\nCodec ID                                 : 40\r\nDuration                                 : 1h 30mn\r\nBit rate mode                            : Constant\r\nBit rate                                 : 220 Kbps\r\nChannel(s)                               : 2 channels\r\nChannel(s)_Original                      : 6 channels\r\nChannel positions                        : Front: L C R, Side: L R, LFE\r\nSampling rate                            : 44.1 KHz\r\nFrame rate                               : 43.066 fps (1024 spf)\r\nCompression mode                         : Lossy\r\nStream size                              : 142 MiB (16%)\r\nDefault                                  : Yes\r\nAlternate group                          : 1","torrent":{"xt":"urn:btih:1fd1ae3c5bb9b6b88eb0876ee8b60c3d5ba80926","amp;dn":"The+Last+of+Robin+Hood%282013%29MPEG-4%5BDaScubaDude%5D","amp;tr":["udp%3A%2F%2Ftracker.leechers-paradise.org%3A6969","udp%3A%2F%2Fzer0day.ch%3A1337","udp%3A%2F%2Fopen.demonii.com%3A1337","udp%3A%2F%2Ftracker.coppersurfer.tk%3A6969","udp%3A%2F%2Fexodus.desync.com%3A6969"],"infoHash":"1fd1ae3c5bb9b6b88eb0876ee8b60c3d5ba80926","infoHashBuffer":{"type":"Buffer","data":[31,209,174,60,91,185,182,184,142,176,135,110,232,182,12,61,91,168,9,38]},"announce":[],"urlList":[]}}